
<svg width="32" height="32" viewBox="0 0 32 32" fill="none" xmlns="http://www.w3.org/2000/svg">
  <rect width="32" height="32" rx="16" fill="#1A1F2C"/>
  <defs>
    <linearGradient id="paint0_linear" x1="4" y1="16" x2="28" y2="16" gradientUnits="userSpaceOnUse">
      <stop offset="0" stop-color="#4ADE80"/>
      <stop offset="1" stop-color="#3B82F6"/>
    </linearGradient>
  </defs>
  <path d="M22 12h-3V8c0-1.103-.897-2-2-2h-4c-1.103 0-2 .897-2 2v4H8c-1.103 0-2 .897-2 2v8c0 1.103.897 2 2 2h14c1.103 0 2-.897 2-2v-8c0-1.103-.897-2-2-2zM13 8h6v4h-6V8zm9 14H10v-3h2v1h8v-1h2v3z" fill="url(#paint0_linear)"/>
</svg>
