
<svg width="32" height="32" viewBox="0 0 32 32" fill="none" xmlns="http://www.w3.org/2000/svg">
  <rect width="32" height="32" rx="16" fill="#1A1F2C"/>
  <path d="M10 8C14.4183 8 18 11.5817 18 16C18 20.4183 14.4183 24 10 24C5.58172 24 2 20.4183 2 16C2 11.5817 5.58172 8 10 8Z" fill="#9b87f5"/>
  <path d="M20 8C24.4183 8 28 11.5817 28 16C28 20.4183 24.4183 24 30 24C25.5817 24 22 20.4183 22 16C22 11.5817 25.5817 8 20 8Z" fill="#7E69AB"/>
  <path d="M15 16C19.4183 16 23 19.5817 23 24C23 28.4183 19.4183 32 15 32C10.5817 32 7 28.4183 7 24C7 19.5817 10.5817 16 15 16Z" fill="#9b87f5"/>
</svg>
