
<svg width="120" height="40" viewBox="0 0 120 40" fill="none" xmlns="http://www.w3.org/2000/svg">
  <defs>
    <linearGradient id="paint0_linear" x1="0" y1="20" x2="40" y2="20" gradientUnits="userSpaceOnUse">
      <stop offset="0" stop-color="#4ADE80"/>
      <stop offset="1" stop-color="#3B82F6"/>
    </linearGradient>
  </defs>
  <path d="M30 10h-5V5c0-1.654-1.346-3-3-3h-4c-1.654 0-3 1.346-3 3v5H10c-1.654 0-3 1.346-3 3v17c0 1.654 1.346 3 3 3h20c1.654 0 3-1.346 3-3V13c0-1.654-1.346-3-3-3zM17 5h6v5h-6V5zm13 25H10v-5h3v2h14v-2h3v5z" fill="url(#paint0_linear)"/>
  <text x="45" y="24" font-family="Arial, sans-serif" font-weight="bold" font-size="14" fill="white">AI Advisor</text>
</svg>
